<svg xmlns="http://www.w3.org/2000/svg" viewBox="0 0 100 100" role="img" aria-label="Spice Island Boerewors"><path d="M54,50 L54.21,49.49 L54.35,48.93 L54.42,48.34 L54.4,47.71 L54.29,47.06 L54.09,46.41 L53.79,45.77 L53.4,45.15 L52.91,44.56 L52.32,44.03 L51.65,43.56 L50.9,43.17 L50.08,42.87 L49.2,42.68 L48.27,42.59 L47.31,42.63 L46.34,42.79 L45.37,43.08 L44.42,43.5 L43.5,44.05 L42.64,44.73 L41.85,45.53 L41.15,46.45 L40.56,47.47 L40.09,48.59 L39.75,49.78 L39.56,51.03 L39.52,52.33 L39.65,53.64 L39.94,54.96 L40.41,56.26 L41.04,57.52 L41.84,58.71 L42.8,59.82 L43.91,60.82 L45.16,61.7 L46.53,62.42 L48.01,62.99 L49.57,63.37 L51.19,63.57 L52.86,63.56 L54.54,63.35 L56.21,62.93 L57.84,62.29 L59.41,61.45 L60.88,60.41 L62.25,59.18 L63.46,57.77 L64.52,56.19 L65.39,54.48 L66.05,52.64 L66.49,50.71 L66.7,48.71 L66.66,46.68 L66.37,44.63 L65.83,42.61 L65.03,40.64 L63.99,38.76 L62.71,36.99 L61.21,35.37 L59.5,33.93 L57.61,32.69 L55.55,31.67 L53.36,30.9 L51.06,30.4 L48.69,30.17 L46.28,30.23 L43.87,30.59 L41.49,31.25 L39.18,32.2 L36.98,33.43 L34.92,34.94 L33.03,36.7 L31.36,38.7 L29.92,40.92 L28.75,43.32 L27.87,45.86 L27.29,48.53 L27.04,51.27 L27.12,54.05 L27.54,56.83 L28.3,59.57 L29.39,62.22 L30.81,64.75 L32.54,67.11 L34.57,69.26 L36.86,71.17 L39.38,72.81 L42.12,74.15 L45.02,75.16 L48.05,75.81 L51.16,76.1 L54.32,76.01 L57.47,75.54 L60.56,74.68 L63.56,73.45 L66.42,71.85 L69.08,69.9 L71.51,67.62 L73.67,65.05 L75.52,62.21 L77.02,59.15 L78.16,55.9 L78.9,52.5 L79.23,49.02 L79.14,45.49 L78.63,41.97 L77.68,38.5 L76.31,35.15 L74.54,31.97 L72.38,29 L69.86,26.28 L67.01,23.87 L63.87,21.81 L60.47,20.13 L56.87,18.85 L53.12,18.01 L49.26,17.63 L45.36,17.71 L41.46,18.27 L37.64,19.3 L33.93,20.79 L30.41,22.73 L27.12,25.09 L24.12,27.85 L21.46,30.97 L19.17,34.42 L17.3,38.14 L15.88,42.09 L14.94,46.2 L14.5,50.43 L14.57,54.71 L15.15,58.97 L16.25,63.17 L17.86,67.23 L19.96,71.09 L22.52,74.69 L25.51,77.99 L28.9,80.92 L32.65,83.43 L36.69,85.5 L40.98,87.07 L45.45,88.12 L50.05,88.63 L54.7,88.59 L59.34,87.98 L63.91,86.81 L68.33,85.1 L72.53,82.85 L76.46,80.09 L80.05,76.87 L83.25,73.22 L86,69.18 L88.26,64.82 L90,60.19 L91.17,55.36 L91.75,50.4 L91.74,45.37 L91.12,40.35 L89.9,35.42 L88.08,30.64 L85.69,26.08" fill="none" stroke="#1c1a19" stroke-width="3.2" stroke-linecap="round" stroke-linejoin="round"/><path d="M85.22,25.34 Q89.22,16.34 91.09,23.31 Q98.09,26.31 93.09,30.31 Q87.09,27.31 88.22,26.34" fill="none" stroke="#1c1a19" stroke-width="3.2" stroke-linecap="round" stroke-linejoin="round"/><path d="M7.76,70.6 L9.85,74.44 L12.3,78.07 L15.07,81.45 L18.15,84.56 L21.5,87.37 L25.09,89.86" fill="none" stroke="#1c1a19" stroke-width="2.56" stroke-linecap="round" stroke-linejoin="round"/><path d="M6.27,75.25 L8.05,78.12 L10.03,80.86 L12.18,83.46 L14.5,85.92 L16.98,88.21 L19.61,90.33" fill="none" stroke="#1c1a19" stroke-width="2.56" stroke-linecap="round" stroke-linejoin="round"/><circle cx="86.41" cy="82.79" r="1.7" fill="#1c1a19"/><circle cx="84.77" cy="90" r="1.4" fill="#1c1a19"/><circle cx="77.53" cy="89.32" r="1.2" fill="#1c1a19"/></svg>
